<svg xmlns="http://www.w3.org/2000/svg">

    <!--    DropDown Menu and Table components-->

    <symbol id="verticalOutline" viewBox="0 0 20 20">
        <g clip-path="url(#clip0_229_2123)">
            <path d="M10 0C4.5 0 0 4.5 0 10C0 15.5 4.5 20 10 20C15.5 20 20 15.5 20 10C20 4.5 15.5 0 10 0ZM10 18.8C5.1 18.8 1.2 14.8 1.2 10C1.2 5.1 5.2 1.2 10 1.2C14.8 1.2 18.8 5.2 18.8 10C18.8 14.9 14.9 18.8 10 18.8Z" fill="white"/>
            <path d="M10 11.1C10.6075 11.1 11.1 10.6075 11.1 9.99999C11.1 9.39248 10.6075 8.89999 10 8.89999C9.39251 8.89999 8.90002 9.39248 8.90002 9.99999C8.90002 10.6075 9.39251 11.1 10 11.1Z" fill="white"/>
            <path d="M10 6.49999C10.6075 6.49999 11.1 6.0075 11.1 5.39999C11.1 4.79247 10.6075 4.29999 10 4.29999C9.39251 4.29999 8.90002 4.79247 8.90002 5.39999C8.90002 6.0075 9.39251 6.49999 10 6.49999Z" fill="white"/>
            <path d="M10 15.7C10.6075 15.7 11.1 15.2075 11.1 14.6C11.1 13.9925 10.6075 13.5 10 13.5C9.39251 13.5 8.90002 13.9925 8.90002 14.6C8.90002 15.2075 9.39251 15.7 10 15.7Z" fill="white"/>
        </g>
    </symbol>

    <symbol id="Edit" viewBox="0 0 16 16">
        <g clip-path="url(#clip0_56116_148)">
            <path d="M12.6667 13.8333H3.33332C3.15651 13.8333 2.98694 13.9035 2.86192 14.0285C2.73689 14.1535 2.66666 14.3231 2.66666 14.4999C2.66666 14.6767 2.73689 14.8463 2.86192 14.9713C2.98694 15.0963 3.15651 15.1666 3.33332 15.1666H12.6667C12.8435 15.1666 13.013 15.0963 13.1381 14.9713C13.2631 14.8463 13.3333 14.6767 13.3333 14.4999C13.3333 14.3231 13.2631 14.1535 13.1381 14.0285C13.013 13.9035 12.8435 13.8333 12.6667 13.8333Z"/>
            <path d="M3.33335 12.5H3.39335L6.17335 12.2467C6.47788 12.2163 6.7627 12.0821 6.98001 11.8667L12.98 5.86665C13.2129 5.62063 13.3387 5.29233 13.33 4.95368C13.3213 4.61503 13.1786 4.29366 12.9333 4.05999L11.1067 2.23332C10.8683 2.00938 10.5559 1.88089 10.2289 1.87229C9.90193 1.86368 9.5832 1.97557 9.33335 2.18665L3.33335 8.18665C3.11786 8.40396 2.98368 8.68879 2.95335 8.99332L2.66668 11.7733C2.6577 11.871 2.67037 11.9694 2.70379 12.0616C2.73721 12.1538 2.79055 12.2374 2.86001 12.3067C2.92231 12.3684 2.99619 12.4173 3.07741 12.4505C3.15864 12.4837 3.24561 12.5005 3.33335 12.5ZM10.18 3.16665L12 4.98665L10.6667 6.28665L8.88001 4.49999L10.18 3.16665ZM4.24668 9.10665L8.00001 5.37999L9.80001 7.17999L6.06668 10.9133L4.06668 11.1L4.24668 9.10665Z"/>
        </g>
    </symbol>

    <symbol id="Learn" viewBox="0 0 16 16">
        <g clip-path="url(#clip0_55777_142)">
            <path d="M8.00001 1.83325C6.68147 1.83325 5.39254 2.22425 4.29621 2.95679C3.19988 3.68933 2.3454 4.73052 1.84082 5.9487C1.33623 7.16687 1.20421 8.50731 1.46144 9.80052C1.71868 11.0937 2.35362 12.2816 3.28597 13.214C4.21832 14.1463 5.4062 14.7813 6.69941 15.0385C7.99262 15.2957 9.33306 15.1637 10.5512 14.6591C11.7694 14.1545 12.8106 13.3 13.5431 12.2037C14.2757 11.1074 14.6667 9.81846 14.6667 8.49992C14.6667 7.62444 14.4942 6.75753 14.1592 5.9487C13.8242 5.13986 13.3331 4.40493 12.7141 3.78587C12.095 3.16682 11.3601 2.67575 10.5512 2.34072C9.7424 2.00569 8.87549 1.83325 8.00001 1.83325ZM8.00001 13.8333C6.94518 13.8333 5.91403 13.5205 5.03697 12.9344C4.15991 12.3484 3.47632 11.5154 3.07266 10.5409C2.66899 9.56636 2.56337 8.494 2.76916 7.45944C2.97495 6.42487 3.4829 5.47456 4.22878 4.72868C4.97466 3.9828 5.92497 3.47485 6.95953 3.26906C7.9941 3.06328 9.06645 3.16889 10.041 3.57256C11.0155 3.97623 11.8485 4.65982 12.4345 5.53688C13.0206 6.41394 13.3333 7.44509 13.3333 8.49992C13.3333 9.91441 12.7714 11.271 11.7712 12.2712C10.7711 13.2713 9.4145 13.8333 8.00001 13.8333Z"/>
            <path d="M8.22666 5.46667C8.06331 5.31613 7.85932 5.21692 7.64004 5.18136C7.42077 5.1458 7.19588 5.17547 6.99333 5.26667C6.7967 5.34621 6.62825 5.48257 6.5095 5.65832C6.39075 5.83407 6.32709 6.04123 6.32666 6.25334V10.7467C6.32709 10.9588 6.39075 11.1659 6.5095 11.3417C6.62825 11.5174 6.7967 11.6538 6.99333 11.7333C7.13784 11.7989 7.29464 11.833 7.45333 11.8333C7.73927 11.8321 8.01467 11.7252 8.22666 11.5333L10.6667 9.28667C10.7758 9.18674 10.8629 9.06519 10.9226 8.92976C10.9822 8.79433 11.013 8.64798 11.013 8.5C11.013 8.35203 10.9822 8.20568 10.9226 8.07025C10.8629 7.93482 10.7758 7.81327 10.6667 7.71334L8.22666 5.46667ZM7.66666 10.2333V6.76667L9.53999 8.5L7.66666 10.2333Z"/>
        </g>
    </symbol>

    <symbol id="Delete" viewBox="0 0 24 24">
        <path d="M21 6H16V4.33C15.9765 3.68982 15.7002 3.08506 15.2316 2.64829C14.7629 2.21153 14.1402 1.97839 13.5 2H10.5C9.85975 1.97839 9.23706 2.21153 8.76843 2.64829C8.2998 3.08506 8.02346 3.68982 8 4.33V6H3C2.73478 6 2.48043 6.10536 2.29289 6.29289C2.10536 6.48043 2 6.73479 2 7C2 7.26522 2.10536 7.51957 2.29289 7.70711C2.48043 7.89464 2.73478 8 3 8H4V19C4 19.7957 4.31607 20.5587 4.87868 21.1213C5.44129 21.6839 6.20435 22 7 22H17C17.7956 22 18.5587 21.6839 19.1213 21.1213C19.6839 20.5587 20 19.7957 20 19V8H21C21.2652 8 21.5196 7.89464 21.7071 7.70711C21.8946 7.51957 22 7.26522 22 7C22 6.73479 21.8946 6.48043 21.7071 6.29289C21.5196 6.10536 21.2652 6 21 6ZM10 4.33C10 4.17 10.21 4 10.5 4H13.5C13.79 4 14 4.17 14 4.33V6H10V4.33ZM18 19C18 19.2652 17.8946 19.5196 17.7071 19.7071C17.5196 19.8946 17.2652 20 17 20H7C6.73478 20 6.48043 19.8946 6.29289 19.7071C6.10536 19.5196 6 19.2652 6 19V8H18V19Z" />
    </symbol>

    <symbol id="Layer" viewBox="0 0 17 18">
        <path d="M12.5 2H4.5C3.96957 2 3.46086 2.21071 3.08579 2.58579C2.71071 2.96086 2.5 3.46957 2.5 4V12C2.5 12.5304 2.71071 13.0391 3.08579 13.4142C3.46086 13.7893 3.96957 14 4.5 14H12.5C13.0304 14 13.5391 13.7893 13.9142 13.4142C14.2893 13.0391 14.5 12.5304 14.5 12V4C14.5 3.46957 14.2893 2.96086 13.9142 2.58579C13.5391 2.21071 13.0304 2 12.5 2ZM4.5 3.33333H12.5C12.6768 3.33333 12.8464 3.40357 12.9714 3.5286C13.0964 3.65362 13.1667 3.82319 13.1667 4V9.57333L11.0333 7.75333C10.7028 7.48136 10.288 7.33266 9.86 7.33266C9.43195 7.33266 9.0172 7.48136 8.68667 7.75333L3.83333 11.8V4C3.83333 3.82319 3.90357 3.65362 4.0286 3.5286C4.15362 3.40357 4.32319 3.33333 4.5 3.33333ZM12.5 12.6667H4.87333L9.54 8.77333C9.62965 8.70677 9.73834 8.67083 9.85 8.67083C9.96166 8.67083 10.0704 8.70677 10.16 8.77333L13.1667 11.3333V12C13.1667 12.1768 13.0964 12.3464 12.9714 12.4714C12.8464 12.5964 12.6768 12.6667 12.5 12.6667Z" fill="white"/>
        <path d="M5.8335 6.66675C6.38578 6.66675 6.8335 6.21903 6.8335 5.66675C6.8335 5.11446 6.38578 4.66675 5.8335 4.66675C5.28121 4.66675 4.8335 5.11446 4.8335 5.66675C4.8335 6.21903 5.28121 6.66675 5.8335 6.66675Z" fill="white"/>
    </symbol>

    <symbol id="Arrow" viewBox="0 0 24 24">
        <path d="M19.5416 14.5142C19.542 14.7478 19.4606 14.9742 19.3116 15.1542C19.2276 15.2554 19.1245 15.3391 19.0082 15.4005C18.8918 15.4618 18.7645 15.4996 18.6335 15.5117C18.5026 15.5238 18.3705 15.5099 18.2449 15.4708C18.1193 15.4318 18.0026 15.3684 17.9016 15.2842L12.5416 10.8042L7.17157 15.1242C7.06928 15.2072 6.95158 15.2693 6.82524 15.3067C6.6989 15.3441 6.56641 15.3562 6.43538 15.3423C6.30436 15.3283 6.17737 15.2886 6.06174 15.2255C5.9461 15.1623 5.84409 15.0769 5.76157 14.9742C5.67053 14.8707 5.60186 14.7495 5.55987 14.6183C5.51788 14.487 5.50348 14.3485 5.51757 14.2114C5.53165 14.0743 5.57392 13.9416 5.64172 13.8216C5.70952 13.7016 5.80139 13.5969 5.91157 13.5142L11.9116 8.68415C12.0905 8.53707 12.3149 8.45667 12.5466 8.45667C12.7782 8.45667 13.0026 8.53707 13.1816 8.68415L19.1816 13.6842C19.3026 13.7845 19.3982 13.9119 19.4608 14.0561C19.5233 14.2003 19.551 14.3572 19.5416 14.5142Z"/>
    </symbol>

    <symbol id="User" viewBox="0 0 24 24">
        <path d="M12 11C12.7911 11 13.5645 10.7654 14.2223 10.3259C14.8801 9.88635 15.3928 9.26164 15.6955 8.53074C15.9983 7.79983 16.0775 6.99556 15.9231 6.21964C15.7688 5.44372 15.3878 4.73098 14.8284 4.17157C14.269 3.61216 13.5563 3.2312 12.7804 3.07686C12.0044 2.92252 11.2002 3.00173 10.4693 3.30448C9.73836 3.60723 9.11365 4.11992 8.67412 4.77772C8.2346 5.43552 8 6.20888 8 7C8 8.06087 8.42143 9.07828 9.17157 9.82843C9.92172 10.5786 10.9391 11 12 11ZM12 5C12.3956 5 12.7822 5.1173 13.1111 5.33706C13.44 5.55683 13.6964 5.86918 13.8478 6.23463C13.9991 6.60009 14.0387 7.00222 13.9616 7.39018C13.8844 7.77814 13.6939 8.13451 13.4142 8.41422C13.1345 8.69392 12.7781 8.8844 12.3902 8.96157C12.0022 9.03874 11.6001 8.99914 11.2346 8.84776C10.8692 8.69639 10.5568 8.44004 10.3371 8.11114C10.1173 7.78224 10 7.39556 10 7C10 6.46957 10.2107 5.96086 10.5858 5.58579C10.9609 5.21072 11.4696 5 12 5Z"/>
        <path d="M12 13C10.1435 13 8.36301 13.7375 7.05025 15.0503C5.7375 16.363 5 18.1435 5 20C5 20.2652 5.10536 20.5196 5.29289 20.7071C5.48043 20.8946 5.73478 21 6 21C6.26522 21 6.51957 20.8946 6.70711 20.7071C6.89464 20.5196 7 20.2652 7 20C7 18.6739 7.52678 17.4021 8.46447 16.4645C9.40215 15.5268 10.6739 15 12 15C13.3261 15 14.5979 15.5268 15.5355 16.4645C16.4732 17.4021 17 18.6739 17 20C17 20.2652 17.1054 20.5196 17.2929 20.7071C17.4804 20.8946 17.7348 21 18 21C18.2652 21 18.5196 20.8946 18.7071 20.7071C18.8946 20.5196 19 20.2652 19 20C19 18.1435 18.2625 16.363 16.9497 15.0503C15.637 13.7375 13.8565 13 12 13Z"/>
    </symbol>

    <symbol id="Logout" viewBox="0 0 24 24">
        <path d="M7 6C7.26522 6 7.51957 5.89464 7.70711 5.70711C7.89464 5.51957 8 5.26522 8 5C8 4.73478 7.89464 4.48043 7.70711 4.29289C7.51957 4.10536 7.26522 4 7 4H5C4.73478 4 4.48043 4.10536 4.29289 4.29289C4.10536 4.48043 4 4.73478 4 5V19C4 19.2652 4.10536 19.5196 4.29289 19.7071C4.48043 19.8946 4.73478 20 5 20H7C7.26522 20 7.51957 19.8946 7.70711 19.7071C7.89464 19.5196 8 19.2652 8 19C8 18.7348 7.89464 18.4804 7.70711 18.2929C7.51957 18.1054 7.26522 18 7 18H6V6H7Z"/>
        <path d="M20.82 11.42L18 7.42C17.8471 7.20441 17.615 7.05814 17.3545 7.01317C17.0941 6.9682 16.8264 7.02818 16.61 7.18C16.5018 7.25579 16.4098 7.35224 16.3391 7.46381C16.2684 7.57537 16.2206 7.69982 16.1982 7.82999C16.1759 7.96015 16.1796 8.09344 16.2091 8.22217C16.2386 8.3509 16.2933 8.47252 16.37 8.58L18.09 11H10C9.73478 11 9.48043 11.1054 9.29289 11.2929C9.10536 11.4804 9 11.7348 9 12C9 12.2652 9.10536 12.5196 9.29289 12.7071C9.48043 12.8946 9.73478 13 10 13H18L16.2 15.4C16.1212 15.5051 16.0639 15.6246 16.0313 15.7518C15.9987 15.879 15.9915 16.0114 16.01 16.1414C16.0286 16.2714 16.0726 16.3965 16.1395 16.5095C16.2064 16.6225 16.2949 16.7212 16.4 16.8C16.5731 16.9298 16.7836 17 17 17C17.1552 17 17.3084 16.9639 17.4472 16.8944C17.5861 16.825 17.7069 16.7242 17.8 16.6L20.8 12.6C20.9281 12.4309 20.999 12.2254 21.0026 12.0133C21.0062 11.8011 20.9423 11.5934 20.82 11.42Z"/>
    </symbol>

    <symbol id="Cross" viewBox="0 0 20 20">
        <path d="M7.40994 6.00019L11.7099 1.71019C11.8982 1.52188 12.004 1.26649 12.004 1.00019C12.004 0.733884 11.8982 0.478489 11.7099 0.290185C11.5216 0.101882 11.2662 -0.00390625 10.9999 -0.00390625C10.7336 -0.00390625 10.4782 0.101882 10.2899 0.290185L5.99994 4.59019L1.70994 0.290185C1.52164 0.101882 1.26624 -0.00390625 0.999939 -0.00390625C0.733637 -0.00390625 0.478243 0.101882 0.289939 0.290185C0.101635 0.478489 -0.00415277 0.733884 -0.00415277 1.00019C-0.00415278 1.26649 0.101635 1.52188 0.289939 1.71019L4.58994 6.00019L0.289939 10.2902C0.196211 10.3831 0.121816 10.4937 0.0710478 10.6156C0.0202791 10.7375 -0.00585938 10.8682 -0.00585938 11.0002C-0.00585938 11.1322 0.0202791 11.2629 0.0710478 11.3848C0.121816 11.5066 0.196211 11.6172 0.289939 11.7102C0.382902 11.8039 0.493503 11.8783 0.615362 11.9291C0.737221 11.9798 0.867927 12.006 0.999939 12.006C1.13195 12.006 1.26266 11.9798 1.38452 11.9291C1.50638 11.8783 1.61698 11.8039 1.70994 11.7102L5.99994 7.41019L10.2899 11.7102C10.3829 11.8039 10.4935 11.8783 10.6154 11.9291C10.7372 11.9798 10.8679 12.006 10.9999 12.006C11.132 12.006 11.2627 11.9798 11.3845 11.9291C11.5064 11.8783 11.617 11.8039 11.7099 11.7102C11.8037 11.6172 11.8781 11.5066 11.9288 11.3848C11.9796 11.2629 12.0057 11.1322 12.0057 11.0002C12.0057 10.8682 11.9796 10.7375 11.9288 10.6156C11.8781 10.4937 11.8037 10.3831 11.7099 10.2902L7.40994 6.00019Z"
              fill="white"/>
    </symbol>

    <symbol id="Logo" viewBox="0 0 100 100">
        <path d="M13,27c-1.105,0 -2,0.895 -2,2c0,1.105 0.895,2 2,2c1.105,0 2,-0.895 2,-2c0,-1.105 -0.895,-2 -2,-2z"
              fill="#cc1439"/>
        <path d="M77,12c-0.552,0 -1,0.448 -1,1c0,0.552 0.448,1 1,1c0.552,0 1,-0.448 1,-1c0,-0.552 -0.448,-1 -1,-1z"
              fill="#808080"/>
        <path d="M50,13c-20.435,0 -37,16.565 -37,37c0,20.435 16.565,37 37,37c20.435,0 37,-16.565 37,-37c0,-20.435 -16.565,-37 -37,-37z"
              fill="#382766"/>
        <path d="M83,11c-2.209,0 -4,1.791 -4,4c0,2.209 1.791,4 4,4c2.209,0 4,-1.791 4,-4c0,-2.209 -1.791,-4 -4,-4z"
              fill="#808080"/>
        <path d="M87,22c-1.105,0 -2,0.895 -2,2c0,1.105 0.895,2 2,2c1.105,0 2,-0.895 2,-2c0,-1.105 -0.895,-2 -2,-2z"
              fill="#cc1439"/>
        <path d="M81,74c-1.105,0 -2,0.895 -2,2c0,1.105 0.895,2 2,2c1.105,0 2,-0.895 2,-2c0,-1.105 -0.895,-2 -2,-2zM15,59c-2.209,0 -4,1.791 -4,4c0,2.209 1.791,4 4,4c2.209,0 4,-1.791 4,-4c0,-2.209 -1.791,-4 -4,-4z"
              fill="#F5F70B"/>
        <path d="M25,85c-1.105,0 -2,0.895 -2,2c0,1.105 0.895,2 2,2c1.105,0 2,-0.895 2,-2c0,-1.105 -0.895,-2 -2,-2z"
              fill="#cc1439"/>
        <path d="M18.5,51c-1.381,0 -2.5,1.119 -2.5,2.5c0,1.381 1.119,2.5 2.5,2.5c1.381,0 2.5,-1.119 2.5,-2.5c0,-1.381 -1.119,-2.5 -2.5,-2.5z"
              fill="#0f9954"/>
        <path d="M21,66c-0.552,0 -1,0.448 -1,1c0,0.552 0.448,1 1,1c0.552,0 1,-0.448 1,-1c0,-0.552 -0.448,-1 -1,-1z"
              fill="#808080"/>
        <path d="M80,33c-0.552,0 -1,0.448 -1,1c0,0.552 0.448,1 1,1c0.552,0 1,-0.448 1,-1c0,-0.552 -0.448,-1 -1,-1z"
              fill="#0f9954"/>
        <path d="M35,72.3c-4.025,0 -7.3,-3.274 -7.3,-7.3v-30c0,-4.025 3.274,-7.3 7.3,-7.3h30c4.025,0 7.3,3.274 7.3,7.3v30c0,4.025 -3.274,7.3 -7.3,7.3z"
              fill="#8c61ff"/>
        <path d="M65,28.4c3.639,0 6.6,2.961 6.6,6.6v30c0,3.639 -2.961,6.6 -6.6,6.6h-30c-3.639,0 -6.6,-2.961 -6.6,-6.6v-30c0,-3.639 2.961,-6.6 6.6,-6.6h30M65,27h-30c-4.4,0 -8,3.6 -8,8v30c0,4.4 3.6,8 8,8h30c4.4,0 8,-3.6 8,-8v-30c0,-4.4 -3.6,-8 -8,-8z"
              fill="#000000"/>
        <path d="M64,69h-28c-2.757,0 -5,-2.243 -5,-5v-28c0,-2.757 2.243,-5 5,-5h25.375c0.276,0 0.5,0.224 0.5,0.5c0,0.276 -0.224,0.5 -0.5,0.5h-25.375c-2.206,0 -4,1.794 -4,4v28c0,2.206 1.794,4 4,4h28c2.206,0 4,-1.794 4,-4v-14.375c0,-0.276 0.224,-0.5 0.5,-0.5c0.276,0 0.5,0.224 0.5,0.5v14.375c0,2.757 -2.243,5 -5,5z"
              fill="#000000"/>
        <path d="M62.5,50c0,-6.904 -5.596,-12.5 -12.5,-12.5c-6.904,0 -12.5,5.596 -12.5,12.5c0,6.904 5.596,12.5 12.5,12.5c1.961,0 3.81,-0.464 5.461,-1.269l1.039,1.269h6l-3.311,-4.047c2.049,-2.226 3.311,-5.189 3.311,-8.453zM50,57.5c-4.142,0 -7.5,-3.358 -7.5,-7.5c0,-4.142 3.358,-7.5 7.5,-7.5c4.142,0 7.5,3.358 7.5,7.5c0,1.701 -0.573,3.264 -1.527,4.523l-2.473,-3.023h-6l4.65,5.683c-0.681,0.204 -1.402,0.317 -2.15,0.317z"
              fill="#ffffff"/>
        <path d="M62.5,63h-6c-0.15,0 -0.292,-0.067 -0.387,-0.184l-0.792,-0.968c-1.692,0.765 -3.48,1.152 -5.321,1.152c-7.168,0 -13,-5.832 -13,-13c0,-7.168 5.832,-13 13,-13c7.168,0 13,5.832 13,13c0,3.113 -1.117,6.103 -3.154,8.467l3.041,3.716c0.123,0.149 0.148,0.356 0.065,0.53c-0.083,0.176 -0.259,0.287 -0.452,0.287zM56.737,62h4.708l-2.643,-3.23c-0.157,-0.192 -0.149,-0.472 0.02,-0.655c2.049,-2.227 3.178,-5.109 3.178,-8.115c0,-6.617 -5.383,-12 -12,-12c-6.617,0 -12,5.383 -12,12c0,6.617 5.383,12 12,12c1.819,0 3.583,-0.41 5.242,-1.219c0.208,-0.102 0.459,-0.047 0.606,0.133zM50,58c-4.411,0 -8,-3.589 -8,-8c0,-4.411 3.589,-8 8,-8c4.411,0 8,3.589 8,8c0,1.751 -0.563,3.419 -1.628,4.825c-0.093,0.122 -0.236,0.195 -0.389,0.198c-0.151,0.006 -0.299,-0.065 -0.396,-0.184l-2.324,-2.839h-4.708l3.982,4.867c0.105,0.129 0.14,0.303 0.091,0.463c-0.049,0.16 -0.175,0.285 -0.335,0.333c-0.749,0.224 -1.52,0.337 -2.293,0.337zM50,43c-3.86,0 -7,3.14 -7,7c0,3.86 3.14,7 7,7c0.421,0 0.843,-0.039 1.259,-0.115l-4.146,-5.068c-0.122,-0.149 -0.147,-0.356 -0.064,-0.531c0.082,-0.175 0.258,-0.286 0.451,-0.286h6c0.15,0 0.292,0.067 0.387,0.184l2.053,2.508c0.695,-1.11 1.06,-2.375 1.06,-3.692c0,-3.86 -3.14,-7 -7,-7z"
              fill="#000000"/>
        <path d="M68.5,47.375c-0.276,0 -0.5,-0.224 -0.5,-0.5v-3.875c0,-0.276 0.224,-0.5 0.5,-0.5c0.276,0 0.5,0.224 0.5,0.5v3.875c0,0.276 -0.224,0.5 -0.5,0.5z"
              fill="#000000"/>
        <path d="M68.5,40.5c-0.276,0 -0.5,-0.224 -0.5,-0.5v-2c0,-0.276 0.224,-0.5 0.5,-0.5c0.276,0 0.5,0.224 0.5,0.5v2c0,0.276 -0.224,0.5 -0.5,0.5z"
              fill="#000000"/>
    </symbol >

    <symbol id="Email" viewBox="0 0 96 96" fill="none">
            <path d="M95.5 48C95.5 74.2335 74.2335 95.5 48 95.5C21.7665 95.5 0.5 74.2335 0.5 48C0.5 21.7665 21.7665 0.5 48 0.5C74.2335 0.5 95.5 21.7665 95.5 48Z" fill="#8C61FF" fill-opacity="0.05" stroke="#BEA6FF"/>
            <path d="M77.8886 54.4543C77.7188 54.4521 77.5566 54.3836 77.4365 54.2635C77.3164 54.1435 77.2479 53.9812 77.2457 53.8114V44.5714C77.2457 44.4009 77.3135 44.2374 77.434 44.1169C77.5546 43.9963 77.7181 43.9286 77.8886 43.9286C78.0591 43.9286 78.2226 43.9963 78.3432 44.1169C78.4637 44.2374 78.5314 44.4009 78.5314 44.5714V53.82C78.5292 53.989 78.4605 54.1503 78.3402 54.269C78.2199 54.3877 78.0576 54.4543 77.8886 54.4543Z" fill="#BEA6FF"/>
            <path d="M77.8886 41.7772C77.7181 41.7772 77.5546 41.7094 77.434 41.5889C77.3135 41.4683 77.2457 41.3048 77.2457 41.1343V39.24C77.2457 39.0695 77.3135 38.906 77.434 38.7855C77.5546 38.6649 77.7181 38.5972 77.8886 38.5972C78.0591 38.5972 78.2226 38.6649 78.3432 38.7855C78.4637 38.906 78.5314 39.0695 78.5314 39.24V41.1429C78.5314 41.2269 78.5148 41.3101 78.4824 41.3876C78.45 41.4651 78.4024 41.5354 78.3426 41.5944C78.2828 41.6535 78.2119 41.7 78.1339 41.7314C78.056 41.7627 77.9726 41.7783 77.8886 41.7772Z" fill="#BEA6FF"/>
            <path d="M25.7863 32.5028H22.2274C21.859 32.5028 21.5601 32.2038 21.5601 31.8355C21.5601 31.4671 21.859 31.1682 22.2274 31.1682H25.7863C26.1547 31.1682 26.4536 31.4671 26.4536 31.8355C26.4536 32.2038 26.1547 32.5028 25.7863 32.5028Z" fill="#BEA6FF"/>
            <path d="M24.0073 34.2824C23.6389 34.2824 23.34 33.9834 23.34 33.6151V30.0561C23.34 29.6878 23.6389 29.3888 24.0073 29.3888C24.3756 29.3888 24.6746 29.6878 24.6746 30.0561V33.6151C24.6746 33.9834 24.3756 34.2824 24.0073 34.2824Z" fill="#BEA6FF"/>
            <path d="M36.8572 73.7143C37.3304 73.7143 37.7144 74.0983 37.7144 74.5714C37.7144 75.0446 37.3304 75.4286 36.8572 75.4286C36.3841 75.4286 36.0001 75.0446 36.0001 74.5714C36.0001 74.0983 36.3841 73.7143 36.8572 73.7143Z" fill="#BEA6FF"/>
            <path d="M31.7143 73.7143C32.1874 73.7143 32.5714 74.0983 32.5714 74.5714C32.5714 75.0446 32.1874 75.4286 31.7143 75.4286C31.2411 75.4286 30.8571 75.0446 30.8571 74.5714C30.8571 74.0983 31.2411 73.7143 31.7143 73.7143Z" fill="#BEA6FF"/>
            <path d="M26.5714 73.7143C27.0446 73.7143 27.4286 74.0983 27.4286 74.5714C27.4286 75.0446 27.0446 75.4286 26.5714 75.4286C26.0983 75.4286 25.7143 75.0446 25.7143 74.5714C25.7143 74.0983 26.0983 73.7143 26.5714 73.7143Z" fill="#BEA6FF"/>
            <path d="M47.8645 23.2418L23.7649 43.0406L47.8645 62.8486L71.9641 43.0406L47.8645 23.2418Z" fill="#333333"/>
            <path d="M47.8647 63.5436C47.7069 63.5303 47.5591 63.4613 47.4475 63.349L23.3479 43.541C23.2692 43.4753 23.2059 43.3931 23.1626 43.3002C23.1193 43.2072 23.0972 43.1059 23.0977 43.0033C23.099 42.9011 23.122 42.8004 23.1651 42.7077C23.2083 42.615 23.2706 42.5326 23.3479 42.4657L47.4475 22.667C47.575 22.553 47.74 22.4899 47.911 22.4899C48.082 22.4899 48.247 22.553 48.3745 22.667L72.4741 42.4657C72.5514 42.5326 72.6137 42.615 72.6569 42.7077C72.7 42.8004 72.723 42.9011 72.7243 43.0033C72.7248 43.1059 72.7027 43.2072 72.6594 43.3002C72.6161 43.3931 72.5528 43.4753 72.4741 43.541L48.3745 63.349C48.308 63.4155 48.2282 63.4673 48.1404 63.5008C48.0525 63.5343 47.9585 63.5489 47.8647 63.5436ZM24.8588 43.0404L47.8647 61.9493L70.8705 43.0404L47.8647 24.1408L24.8588 43.0404Z" fill="#BEA6FF"/>
            <path d="M65.0126 28.8032H30.717V69.5872H65.0126V28.8032Z" fill="#333333"/>
            <path d="M55.4098 40.853L43.6937 50.4836V69.5872H65.0126V40.853H55.4098Z" fill="#333333"/>
            <path d="M65.0588 70.2823H30.7632C30.5795 70.2799 30.4041 70.2059 30.2743 70.076C30.1444 69.9461 30.0704 69.7707 30.068 69.5871V28.8031C30.0728 28.622 30.1482 28.4499 30.2781 28.3235C30.4079 28.1971 30.582 28.1264 30.7632 28.1265H65.0588C65.2432 28.1265 65.42 28.1997 65.5504 28.3301C65.6807 28.4604 65.754 28.6373 65.754 28.8216V69.6056C65.7468 69.786 65.6708 69.9568 65.5414 70.0827C65.412 70.2086 65.2393 70.28 65.0588 70.2823ZM31.412 68.9104H64.3172V29.5168H31.412V68.9104Z" fill="#BEA6FF"/>
            <path d="M58.9875 35.0598H48.1705C47.9861 35.0598 47.8093 34.9865 47.679 34.8562C47.5486 34.7258 47.4753 34.549 47.4753 34.3646C47.4753 34.1802 47.5486 34.0034 47.679 33.873C47.8093 33.7427 47.9861 33.6694 48.1705 33.6694H58.9875C59.1719 33.6694 59.3487 33.7427 59.4791 33.873C59.6095 34.0034 59.6827 34.1802 59.6827 34.3646C59.6827 34.549 59.6095 34.7258 59.4791 34.8562C59.3487 34.9865 59.1719 35.0598 58.9875 35.0598Z" fill="#BEA6FF"/>
            <path d="M44.4628 35.0598H36.7417C36.5573 35.0598 36.3805 34.9865 36.2501 34.8562C36.1197 34.7258 36.0465 34.549 36.0465 34.3646C36.0465 34.1802 36.1197 34.0034 36.2501 33.873C36.3805 33.7427 36.5573 33.6694 36.7417 33.6694H44.4628C44.6472 33.6694 44.824 33.7427 44.9544 33.873C45.0848 34.0034 45.158 34.1802 45.158 34.3646C45.158 34.549 45.0848 34.7258 44.9544 34.8562C44.824 34.9865 44.6472 35.0598 44.4628 35.0598Z" fill="#BEA6FF"/>
            <path d="M58.9874 39.6944H51.878C51.6937 39.6944 51.5168 39.6211 51.3865 39.4907C51.2561 39.3604 51.1829 39.1836 51.1829 38.9992C51.1829 38.8148 51.2561 38.638 51.3865 38.5076C51.5168 38.3772 51.6937 38.304 51.878 38.304H58.9874C59.1718 38.304 59.3486 38.3772 59.479 38.5076C59.6094 38.638 59.6826 38.8148 59.6826 38.9992C59.6826 39.1836 59.6094 39.3604 59.479 39.4907C59.3486 39.6211 59.1718 39.6944 58.9874 39.6944Z" fill="#BEA6FF"/>
            <path d="M48.1705 39.6944H36.7417C36.5573 39.6944 36.3805 39.6211 36.2501 39.4907C36.1197 39.3604 36.0465 39.1836 36.0465 38.9992C36.0465 38.8148 36.1197 38.638 36.2501 38.5076C36.3805 38.3772 36.5573 38.304 36.7417 38.304H48.1705C48.3548 38.304 48.5317 38.3772 48.662 38.5076C48.7924 38.638 48.8657 38.8148 48.8657 38.9992C48.8657 39.1836 48.7924 39.3604 48.662 39.4907C48.5317 39.6211 48.3548 39.6944 48.1705 39.6944Z" fill="#BEA6FF"/>
            <path d="M58.9876 44.3289H46.3168C46.1324 44.3289 45.9556 44.2556 45.8252 44.1253C45.6948 43.9949 45.6216 43.8181 45.6216 43.6337C45.6216 43.4493 45.6948 43.2725 45.8252 43.1421C45.9556 43.0118 46.1324 42.9385 46.3168 42.9385H58.9876C59.172 42.9385 59.3488 43.0118 59.4792 43.1421C59.6095 43.2725 59.6828 43.4493 59.6828 43.6337C59.6828 43.8181 59.6095 43.9949 59.4792 44.1253C59.3488 44.2556 59.172 44.3289 58.9876 44.3289Z" fill="#BEA6FF"/>
            <path d="M42.609 44.3289H36.7417C36.5573 44.3289 36.3805 44.2556 36.2501 44.1253C36.1197 43.9949 36.0465 43.8181 36.0465 43.6337C36.0465 43.4493 36.1197 43.2725 36.2501 43.1421C36.3805 43.0118 36.5573 42.9385 36.7417 42.9385H42.609C42.7934 42.9385 42.9702 43.0118 43.1006 43.1421C43.231 43.2725 43.3042 43.4493 43.3042 43.6337C43.3042 43.8181 43.231 43.9949 43.1006 44.1253C42.9702 44.2556 42.7934 44.3289 42.609 44.3289Z" fill="#BEA6FF"/>
            <path d="M58.9875 48.9635H52.805C52.6207 48.9635 52.4438 48.8902 52.3135 48.7598C52.1831 48.6295 52.1099 48.4527 52.1099 48.2683C52.1099 48.0839 52.1831 47.9071 52.3135 47.7767C52.4438 47.6463 52.6207 47.5731 52.805 47.5731H58.9875C59.1719 47.5731 59.3487 47.6463 59.4791 47.7767C59.6095 47.9071 59.6827 48.0839 59.6827 48.2683C59.6827 48.4527 59.6095 48.6295 59.4791 48.7598C59.3487 48.8902 59.1719 48.9635 58.9875 48.9635Z" fill="#BEA6FF"/>
            <path d="M49.0974 48.9635H36.7417C36.5573 48.9635 36.3805 48.8902 36.2501 48.7598C36.1197 48.6295 36.0465 48.4527 36.0465 48.2683C36.0465 48.0839 36.1197 47.9071 36.2501 47.7767C36.3805 47.6463 36.5573 47.5731 36.7417 47.5731H49.0974C49.2818 47.5731 49.4586 47.6463 49.589 47.7767C49.7193 47.9071 49.7926 48.0839 49.7926 48.2683C49.7926 48.4527 49.7193 48.6295 49.589 48.7598C49.4586 48.8902 49.2818 48.9635 49.0974 48.9635Z" fill="#BEA6FF"/>
            <path d="M54.0472 53.598H41.6822C41.4979 53.598 41.321 53.5248 41.1907 53.3944C41.0603 53.264 40.9871 53.0872 40.9871 52.9028C40.9871 52.7185 41.0603 52.5416 41.1907 52.4113C41.321 52.2809 41.4979 52.2077 41.6822 52.2077H54.0472C54.2316 52.2077 54.4084 52.2809 54.5388 52.4113C54.6691 52.5416 54.7424 52.7185 54.7424 52.9028C54.7424 53.0872 54.6691 53.264 54.5388 53.3944C54.4084 53.5248 54.2316 53.598 54.0472 53.598Z" fill="#BEA6FF"/>
            <path d="M23.7649 43.0405V69.5871L39.9116 56.3138L23.7649 43.0405Z" fill="#333333"/>
            <path d="M55.8176 56.3138L71.9644 69.5871V43.0405L55.8176 56.3138Z" fill="#333333"/>
            <path d="M47.8645 62.8485L39.9116 56.3138L23.7649 69.5872H71.9641L55.8174 56.3138L47.8645 62.8485Z" fill="#333333"/>
            <path d="M28.3998 50.4927V65.7774L37.6967 58.1397L28.3998 50.4927Z" fill="#333333"/>
            <path d="M63.1958 57.8803L71.9643 65.0916V50.6782L63.1958 57.8803Z" fill="#333333"/>
            <path d="M23.7652 70.2823C23.662 70.2808 23.5604 70.2554 23.4686 70.2081C23.3499 70.1533 23.2493 70.0658 23.1787 69.9558C23.1081 69.8457 23.0704 69.7178 23.0701 69.5871V43.0404C23.0704 42.9097 23.1081 42.7818 23.1787 42.6718C23.2493 42.5617 23.3499 42.4742 23.4686 42.4194C23.5874 42.3614 23.7202 42.3384 23.8516 42.3532C23.9829 42.368 24.1073 42.4199 24.2102 42.5028L40.3569 55.7761C40.435 55.8423 40.4978 55.9246 40.5408 56.0175C40.5838 56.1103 40.6061 56.2114 40.6061 56.3138C40.6061 56.4161 40.5838 56.5172 40.5408 56.61C40.4978 56.7029 40.435 56.7852 40.3569 56.8514L24.2102 70.1154C24.0865 70.2223 23.9287 70.2814 23.7652 70.2823ZM24.4604 44.5142V68.1133L38.8182 56.3138L24.4604 44.5142Z" fill="#BEA6FF"/>
            <path d="M60.4244 60.0954L50.2747 68.4376L43.1931 62.6166L34.7212 69.587H71.9644L60.4244 60.0954Z" fill="#333333"/>
            <path d="M71.9644 70.2823C71.801 70.2814 71.6432 70.2223 71.5195 70.1154L55.3728 56.8606C55.2947 56.7945 55.2319 56.7122 55.1889 56.6193C55.1458 56.5265 55.1235 56.4254 55.1235 56.323C55.1235 56.2207 55.1458 56.1196 55.1889 56.0267C55.2319 55.9339 55.2947 55.8515 55.3728 55.7854L71.5473 42.5028C71.6502 42.4199 71.7746 42.368 71.9059 42.3532C72.0373 42.3384 72.1701 42.3614 72.2888 42.4194C72.4075 42.4742 72.5081 42.5617 72.5788 42.6718C72.6494 42.7818 72.6871 42.9097 72.6874 43.0404V69.5871C72.6871 69.7178 72.6494 69.8457 72.5788 69.9558C72.5081 70.0658 72.4075 70.1533 72.2888 70.2081C72.1887 70.2598 72.0771 70.2853 71.9644 70.2823ZM56.9114 56.3138L71.2692 68.1133V44.5142L56.9114 56.3138Z" fill="#BEA6FF"/>
            <path d="M71.9642 70.2823H23.7649C23.621 70.2816 23.4808 70.2367 23.3632 70.1539C23.2455 70.071 23.1561 69.9541 23.1069 69.8189C23.0604 69.6841 23.0559 69.5384 23.0939 69.4011C23.132 69.2637 23.2108 69.1411 23.32 69.0495L39.4668 55.7762C39.5942 55.6622 39.7592 55.5992 39.9302 55.5992C40.1012 55.5992 40.2662 55.6622 40.3937 55.7762L47.9017 61.9494L55.4096 55.7762C55.5371 55.6622 55.7021 55.5992 55.8731 55.5992C56.0441 55.5992 56.2091 55.6622 56.3365 55.7762L72.4833 69.0495C72.5924 69.1411 72.6713 69.2637 72.7094 69.4011C72.7474 69.5384 72.7429 69.6841 72.6965 69.8189C72.6435 69.9667 72.5427 70.0926 72.41 70.1765C72.2774 70.2605 72.1204 70.2977 71.9642 70.2823ZM25.7022 68.9105H70.027L55.7896 57.2129L48.2817 63.3861C48.1542 63.5001 47.9892 63.5632 47.8182 63.5632C47.6472 63.5632 47.4822 63.5001 47.3548 63.3861L39.8468 57.2129L25.7022 68.9105Z" fill="#BEA6FF"/>
            <path d="M46.3576 75.3599H42.7987C42.4303 75.3599 42.1313 75.061 42.1313 74.6926C42.1313 74.3243 42.4303 74.0253 42.7987 74.0253H46.3576C46.7259 74.0253 47.0249 74.3243 47.0249 74.6926C47.0249 75.061 46.7259 75.3599 46.3576 75.3599Z" fill="#BEA6FF"/>
            <path d="M44.5788 77.1395C44.2105 77.1395 43.9115 76.8406 43.9115 76.4722V72.9133C43.9115 72.5449 44.2105 72.246 44.5788 72.246C44.9472 72.246 45.2461 72.5449 45.2461 72.9133V76.4722C45.2461 76.8406 44.9472 77.1395 44.5788 77.1395Z" fill="#BEA6FF"/>
    </symbol>

    <symbol id="arrow-back" viewBox="0 0 16 16">
        <g clip-path="url(#clip0_5928_12555)">
            <path d="M12.6667 7.33335H4.76008L7.18008 4.42669C7.29324 4.29054 7.34768 4.11502 7.33143 3.93874C7.31518 3.76245 7.22956 3.59985 7.09341 3.48669C6.95727 3.37353 6.78175 3.31909 6.60547 3.33534C6.42918 3.35159 6.26657 3.43721 6.15341 3.57335L2.82008 7.57335C2.79766 7.60517 2.7776 7.63859 2.76008 7.67335C2.76008 7.70669 2.76008 7.72669 2.71341 7.76002C2.6832 7.83646 2.66738 7.91783 2.66675 8.00002C2.66738 8.08221 2.6832 8.16358 2.71341 8.24002C2.71341 8.27335 2.71341 8.29335 2.76008 8.32669C2.7776 8.36145 2.79766 8.39487 2.82008 8.42669L6.15341 12.4267C6.2161 12.5019 6.29459 12.5625 6.38331 12.6039C6.47203 12.6454 6.56881 12.6668 6.66675 12.6667C6.82252 12.667 6.97347 12.6127 7.09341 12.5134C7.16092 12.4574 7.21672 12.3887 7.25762 12.3111C7.29852 12.2335 7.32372 12.1487 7.33177 12.0613C7.33982 11.974 7.33057 11.886 7.30454 11.8022C7.27851 11.7185 7.23622 11.6407 7.18008 11.5734L4.76008 8.66669H12.6667C12.8436 8.66669 13.0131 8.59645 13.1382 8.47143C13.2632 8.3464 13.3334 8.17683 13.3334 8.00002C13.3334 7.82321 13.2632 7.65364 13.1382 7.52862C13.0131 7.40359 12.8436 7.33335 12.6667 7.33335Z" />
        </g>
    </symbol>
      <symbol id="edit" viewBox="0 0 24 24">
            <path d="M19 20H5C4.73478 20 4.48043 20.1054 4.29289 20.2929C4.10536 20.4804 4 20.7348 4 21C4 21.2652 4.10536 21.5196 4.29289 21.7071C4.48043 21.8946 4.73478 22 5 22H19C19.2652 22 19.5196 21.8946 19.7071 21.7071C19.8946 21.5196 20 21.2652 20 21C20 20.7348 19.8946 20.4804 19.7071 20.2929C19.5196 20.1054 19.2652 20 19 20Z"/>
            <path d="M5.00001 18H5.09001L9.26001 17.62C9.7168 17.5745 10.144 17.3732 10.47 17.05L19.47 8.05C19.8193 7.68097 20.0081 7.18851 19.995 6.68054C19.9819 6.17256 19.7679 5.69051 19.4 5.34L16.66 2.6C16.3024 2.2641 15.8338 2.07136 15.3433 2.05845C14.8529 2.04555 14.3748 2.21337 14 2.53L5.00001 11.53C4.67677 11.856 4.47551 12.2832 4.43001 12.74L4.00001 16.91C3.98654 17.0565 4.00554 17.2041 4.05567 17.3424C4.10579 17.4807 4.18581 17.6062 4.29001 17.71C4.38345 17.8027 4.49426 17.876 4.6161 17.9258C4.73794 17.9755 4.8684 18.0008 5.00001 18ZM15.27 4L18 6.73L16 8.68L13.32 6L15.27 4ZM6.37001 12.91L12 7.32L14.7 10.02L9.10001 15.62L6.10001 15.9L6.37001 12.91Z"/>
      </symbol>        
      <symbol id="out" viewBox="0 0 24 24">
            <path d="M7 6C7.26522 6 7.51957 5.89464 7.70711 5.70711C7.89464 5.51957 8 5.26522 8 5C8 4.73478 7.89464 4.48043 7.70711 4.29289C7.51957 4.10536 7.26522 4 7 4H5C4.73478 4 4.48043 4.10536 4.29289 4.29289C4.10536 4.48043 4 4.73478 4 5V19C4 19.2652 4.10536 19.5196 4.29289 19.7071C4.48043 19.8946 4.73478 20 5 20H7C7.26522 20 7.51957 19.8946 7.70711 19.7071C7.89464 19.5196 8 19.2652 8 19C8 18.7348 7.89464 18.4804 7.70711 18.2929C7.51957 18.1054 7.26522 18 7 18H6V6H7Z"/>
            <path d="M20.82 11.42L18 7.42C17.8471 7.20441 17.615 7.05814 17.3545 7.01317C17.0941 6.9682 16.8264 7.02818 16.61 7.18C16.5018 7.25579 16.4098 7.35224 16.3391 7.46381C16.2684 7.57537 16.2206 7.69982 16.1982 7.82999C16.1759 7.96015 16.1796 8.09344 16.2091 8.22217C16.2386 8.3509 16.2933 8.47252 16.37 8.58L18.09 11H10C9.73478 11 9.48043 11.1054 9.29289 11.2929C9.10536 11.4804 9 11.7348 9 12C9 12.2652 9.10536 12.5196 9.29289 12.7071C9.48043 12.8946 9.73478 13 10 13H18L16.2 15.4C16.1212 15.5051 16.0639 15.6246 16.0313 15.7518C15.9987 15.879 15.9915 16.0114 16.01 16.1414C16.0286 16.2714 16.0726 16.3965 16.1395 16.5095C16.2064 16.6225 16.2949 16.7212 16.4 16.8C16.5731 16.9298 16.7836 17 17 17C17.1552 17 17.3084 16.9639 17.4472 16.8944C17.5861 16.825 17.7069 16.7242 17.8 16.6L20.8 12.6C20.9281 12.4309 20.999 12.2254 21.0026 12.0133C21.0062 11.8011 20.9423 11.5934 20.82 11.42Z"/>
      </symbol>
</svg>
