<svg xmlns="http://www.w3.org/2000/svg">

    <!--    DropDown Menu and Table components-->

    <symbol id="verticalOutline" viewBox="0 0 24 24">
        <circle cx="12" cy="12" r="8.5" stroke="white" fill="none"/>
        <g clip-path="url(#clip0_52363_14059)">
            <path d="M12 13C12.5523 13 13 12.5523 13 12C13 11.4477 12.5523 11 12 11C11.4477 11 11 11.4477 11 12C11 12.5523 11.4477 13 12 13Z"
                  fill="white"/>
            <path d="M12 9.5C12.5523 9.5 13 9.05228 13 8.5C13 7.94772 12.5523 7.5 12 7.5C11.4477 7.5 11 7.94772 11 8.5C11 9.05228 11.4477 9.5 12 9.5Z"
                  fill="white"/>
            <path d="M12 16.5C12.5523 16.5 13 16.0523 13 15.5C13 14.9477 12.5523 14.5 12 14.5C11.4477 14.5 11 14.9477 11 15.5C11 16.0523 11.4477 16.5 12 16.5Z"
                  fill="white"/>
        </g>
    </symbol>

    <symbol id="Edit" viewBox="0 0 16 16">
        <g clip-path="url(#clip0_56116_148)">
            <path d="M12.6667 13.8333H3.33332C3.15651 13.8333 2.98694 13.9035 2.86192 14.0285C2.73689 14.1535 2.66666 14.3231 2.66666 14.4999C2.66666 14.6767 2.73689 14.8463 2.86192 14.9713C2.98694 15.0963 3.15651 15.1666 3.33332 15.1666H12.6667C12.8435 15.1666 13.013 15.0963 13.1381 14.9713C13.2631 14.8463 13.3333 14.6767 13.3333 14.4999C13.3333 14.3231 13.2631 14.1535 13.1381 14.0285C13.013 13.9035 12.8435 13.8333 12.6667 13.8333Z"/>
            <path d="M3.33335 12.5H3.39335L6.17335 12.2467C6.47788 12.2163 6.7627 12.0821 6.98001 11.8667L12.98 5.86665C13.2129 5.62063 13.3387 5.29233 13.33 4.95368C13.3213 4.61503 13.1786 4.29366 12.9333 4.05999L11.1067 2.23332C10.8683 2.00938 10.5559 1.88089 10.2289 1.87229C9.90193 1.86368 9.5832 1.97557 9.33335 2.18665L3.33335 8.18665C3.11786 8.40396 2.98368 8.68879 2.95335 8.99332L2.66668 11.7733C2.6577 11.871 2.67037 11.9694 2.70379 12.0616C2.73721 12.1538 2.79055 12.2374 2.86001 12.3067C2.92231 12.3684 2.99619 12.4173 3.07741 12.4505C3.15864 12.4837 3.24561 12.5005 3.33335 12.5ZM10.18 3.16665L12 4.98665L10.6667 6.28665L8.88001 4.49999L10.18 3.16665ZM4.24668 9.10665L8.00001 5.37999L9.80001 7.17999L6.06668 10.9133L4.06668 11.1L4.24668 9.10665Z"/>
        </g>
    </symbol>

    <symbol id="Learn" viewBox="0 0 16 16">
        <g clip-path="url(#clip0_55777_142)">
            <path d="M8.00001 1.83325C6.68147 1.83325 5.39254 2.22425 4.29621 2.95679C3.19988 3.68933 2.3454 4.73052 1.84082 5.9487C1.33623 7.16687 1.20421 8.50731 1.46144 9.80052C1.71868 11.0937 2.35362 12.2816 3.28597 13.214C4.21832 14.1463 5.4062 14.7813 6.69941 15.0385C7.99262 15.2957 9.33306 15.1637 10.5512 14.6591C11.7694 14.1545 12.8106 13.3 13.5431 12.2037C14.2757 11.1074 14.6667 9.81846 14.6667 8.49992C14.6667 7.62444 14.4942 6.75753 14.1592 5.9487C13.8242 5.13986 13.3331 4.40493 12.7141 3.78587C12.095 3.16682 11.3601 2.67575 10.5512 2.34072C9.7424 2.00569 8.87549 1.83325 8.00001 1.83325ZM8.00001 13.8333C6.94518 13.8333 5.91403 13.5205 5.03697 12.9344C4.15991 12.3484 3.47632 11.5154 3.07266 10.5409C2.66899 9.56636 2.56337 8.494 2.76916 7.45944C2.97495 6.42487 3.4829 5.47456 4.22878 4.72868C4.97466 3.9828 5.92497 3.47485 6.95953 3.26906C7.9941 3.06328 9.06645 3.16889 10.041 3.57256C11.0155 3.97623 11.8485 4.65982 12.4345 5.53688C13.0206 6.41394 13.3333 7.44509 13.3333 8.49992C13.3333 9.91441 12.7714 11.271 11.7712 12.2712C10.7711 13.2713 9.4145 13.8333 8.00001 13.8333Z"/>
            <path d="M8.22666 5.46667C8.06331 5.31613 7.85932 5.21692 7.64004 5.18136C7.42077 5.1458 7.19588 5.17547 6.99333 5.26667C6.7967 5.34621 6.62825 5.48257 6.5095 5.65832C6.39075 5.83407 6.32709 6.04123 6.32666 6.25334V10.7467C6.32709 10.9588 6.39075 11.1659 6.5095 11.3417C6.62825 11.5174 6.7967 11.6538 6.99333 11.7333C7.13784 11.7989 7.29464 11.833 7.45333 11.8333C7.73927 11.8321 8.01467 11.7252 8.22666 11.5333L10.6667 9.28667C10.7758 9.18674 10.8629 9.06519 10.9226 8.92976C10.9822 8.79433 11.013 8.64798 11.013 8.5C11.013 8.35203 10.9822 8.20568 10.9226 8.07025C10.8629 7.93482 10.7758 7.81327 10.6667 7.71334L8.22666 5.46667ZM7.66666 10.2333V6.76667L9.53999 8.5L7.66666 10.2333Z"/>
        </g>
    </symbol>

    <symbol id="Delete" viewBox="0 0 24 24">
        <path d="M21 6H16V4.33C15.9765 3.68982 15.7002 3.08506 15.2316 2.64829C14.7629 2.21153 14.1402 1.97839 13.5 2H10.5C9.85975 1.97839 9.23706 2.21153 8.76843 2.64829C8.2998 3.08506 8.02346 3.68982 8 4.33V6H3C2.73478 6 2.48043 6.10536 2.29289 6.29289C2.10536 6.48043 2 6.73479 2 7C2 7.26522 2.10536 7.51957 2.29289 7.70711C2.48043 7.89464 2.73478 8 3 8H4V19C4 19.7957 4.31607 20.5587 4.87868 21.1213C5.44129 21.6839 6.20435 22 7 22H17C17.7956 22 18.5587 21.6839 19.1213 21.1213C19.6839 20.5587 20 19.7957 20 19V8H21C21.2652 8 21.5196 7.89464 21.7071 7.70711C21.8946 7.51957 22 7.26522 22 7C22 6.73479 21.8946 6.48043 21.7071 6.29289C21.5196 6.10536 21.2652 6 21 6ZM10 4.33C10 4.17 10.21 4 10.5 4H13.5C13.79 4 14 4.17 14 4.33V6H10V4.33ZM18 19C18 19.2652 17.8946 19.5196 17.7071 19.7071C17.5196 19.8946 17.2652 20 17 20H7C6.73478 20 6.48043 19.8946 6.29289 19.7071C6.10536 19.5196 6 19.2652 6 19V8H18V19Z"/>
    </symbol>

    <symbol id="Arrow" viewBox="0 0 24 24">
        <path d="M19.5416 14.5142C19.542 14.7478 19.4606 14.9742 19.3116 15.1542C19.2276 15.2554 19.1245 15.3391 19.0082 15.4005C18.8918 15.4618 18.7645 15.4996 18.6335 15.5117C18.5026 15.5238 18.3705 15.5099 18.2449 15.4708C18.1193 15.4318 18.0026 15.3684 17.9016 15.2842L12.5416 10.8042L7.17157 15.1242C7.06928 15.2072 6.95158 15.2693 6.82524 15.3067C6.6989 15.3441 6.56641 15.3562 6.43538 15.3423C6.30436 15.3283 6.17737 15.2886 6.06174 15.2255C5.9461 15.1623 5.84409 15.0769 5.76157 14.9742C5.67053 14.8707 5.60186 14.7495 5.55987 14.6183C5.51788 14.487 5.50348 14.3485 5.51757 14.2114C5.53165 14.0743 5.57392 13.9416 5.64172 13.8216C5.70952 13.7016 5.80139 13.5969 5.91157 13.5142L11.9116 8.68415C12.0905 8.53707 12.3149 8.45667 12.5466 8.45667C12.7782 8.45667 13.0026 8.53707 13.1816 8.68415L19.1816 13.6842C19.3026 13.7845 19.3982 13.9119 19.4608 14.0561C19.5233 14.2003 19.551 14.3572 19.5416 14.5142Z"/>
    </symbol>

    <symbol id="User" viewBox="0 0 24 24">
        <path d="M12 11C12.7911 11 13.5645 10.7654 14.2223 10.3259C14.8801 9.88635 15.3928 9.26164 15.6955 8.53074C15.9983 7.79983 16.0775 6.99556 15.9231 6.21964C15.7688 5.44372 15.3878 4.73098 14.8284 4.17157C14.269 3.61216 13.5563 3.2312 12.7804 3.07686C12.0044 2.92252 11.2002 3.00173 10.4693 3.30448C9.73836 3.60723 9.11365 4.11992 8.67412 4.77772C8.2346 5.43552 8 6.20888 8 7C8 8.06087 8.42143 9.07828 9.17157 9.82843C9.92172 10.5786 10.9391 11 12 11ZM12 5C12.3956 5 12.7822 5.1173 13.1111 5.33706C13.44 5.55683 13.6964 5.86918 13.8478 6.23463C13.9991 6.60009 14.0387 7.00222 13.9616 7.39018C13.8844 7.77814 13.6939 8.13451 13.4142 8.41422C13.1345 8.69392 12.7781 8.8844 12.3902 8.96157C12.0022 9.03874 11.6001 8.99914 11.2346 8.84776C10.8692 8.69639 10.5568 8.44004 10.3371 8.11114C10.1173 7.78224 10 7.39556 10 7C10 6.46957 10.2107 5.96086 10.5858 5.58579C10.9609 5.21072 11.4696 5 12 5Z"/>
        <path d="M12 13C10.1435 13 8.36301 13.7375 7.05025 15.0503C5.7375 16.363 5 18.1435 5 20C5 20.2652 5.10536 20.5196 5.29289 20.7071C5.48043 20.8946 5.73478 21 6 21C6.26522 21 6.51957 20.8946 6.70711 20.7071C6.89464 20.5196 7 20.2652 7 20C7 18.6739 7.52678 17.4021 8.46447 16.4645C9.40215 15.5268 10.6739 15 12 15C13.3261 15 14.5979 15.5268 15.5355 16.4645C16.4732 17.4021 17 18.6739 17 20C17 20.2652 17.1054 20.5196 17.2929 20.7071C17.4804 20.8946 17.7348 21 18 21C18.2652 21 18.5196 20.8946 18.7071 20.7071C18.8946 20.5196 19 20.2652 19 20C19 18.1435 18.2625 16.363 16.9497 15.0503C15.637 13.7375 13.8565 13 12 13Z"/>
    </symbol>

    <symbol id="Logout" viewBox="0 0 24 24">
        <path d="M7 6C7.26522 6 7.51957 5.89464 7.70711 5.70711C7.89464 5.51957 8 5.26522 8 5C8 4.73478 7.89464 4.48043 7.70711 4.29289C7.51957 4.10536 7.26522 4 7 4H5C4.73478 4 4.48043 4.10536 4.29289 4.29289C4.10536 4.48043 4 4.73478 4 5V19C4 19.2652 4.10536 19.5196 4.29289 19.7071C4.48043 19.8946 4.73478 20 5 20H7C7.26522 20 7.51957 19.8946 7.70711 19.7071C7.89464 19.5196 8 19.2652 8 19C8 18.7348 7.89464 18.4804 7.70711 18.2929C7.51957 18.1054 7.26522 18 7 18H6V6H7Z"/>
        <path d="M20.82 11.42L18 7.42C17.8471 7.20441 17.615 7.05814 17.3545 7.01317C17.0941 6.9682 16.8264 7.02818 16.61 7.18C16.5018 7.25579 16.4098 7.35224 16.3391 7.46381C16.2684 7.57537 16.2206 7.69982 16.1982 7.82999C16.1759 7.96015 16.1796 8.09344 16.2091 8.22217C16.2386 8.3509 16.2933 8.47252 16.37 8.58L18.09 11H10C9.73478 11 9.48043 11.1054 9.29289 11.2929C9.10536 11.4804 9 11.7348 9 12C9 12.2652 9.10536 12.5196 9.29289 12.7071C9.48043 12.8946 9.73478 13 10 13H18L16.2 15.4C16.1212 15.5051 16.0639 15.6246 16.0313 15.7518C15.9987 15.879 15.9915 16.0114 16.01 16.1414C16.0286 16.2714 16.0726 16.3965 16.1395 16.5095C16.2064 16.6225 16.2949 16.7212 16.4 16.8C16.5731 16.9298 16.7836 17 17 17C17.1552 17 17.3084 16.9639 17.4472 16.8944C17.5861 16.825 17.7069 16.7242 17.8 16.6L20.8 12.6C20.9281 12.4309 20.999 12.2254 21.0026 12.0133C21.0062 11.8011 20.9423 11.5934 20.82 11.42Z"/>
    </symbol>

    <symbol id="Cross" viewBox="0 0 12 12">
        <path d="M7.40994 6.00019L11.7099 1.71019C11.8982 1.52188 12.004 1.26649 12.004 1.00019C12.004 0.733884 11.8982 0.478489 11.7099 0.290185C11.5216 0.101882 11.2662 -0.00390625 10.9999 -0.00390625C10.7336 -0.00390625 10.4782 0.101882 10.2899 0.290185L5.99994 4.59019L1.70994 0.290185C1.52164 0.101882 1.26624 -0.00390625 0.999939 -0.00390625C0.733637 -0.00390625 0.478243 0.101882 0.289939 0.290185C0.101635 0.478489 -0.00415277 0.733884 -0.00415277 1.00019C-0.00415278 1.26649 0.101635 1.52188 0.289939 1.71019L4.58994 6.00019L0.289939 10.2902C0.196211 10.3831 0.121816 10.4937 0.0710478 10.6156C0.0202791 10.7375 -0.00585938 10.8682 -0.00585938 11.0002C-0.00585938 11.1322 0.0202791 11.2629 0.0710478 11.3848C0.121816 11.5066 0.196211 11.6172 0.289939 11.7102C0.382902 11.8039 0.493503 11.8783 0.615362 11.9291C0.737221 11.9798 0.867927 12.006 0.999939 12.006C1.13195 12.006 1.26266 11.9798 1.38452 11.9291C1.50638 11.8783 1.61698 11.8039 1.70994 11.7102L5.99994 7.41019L10.2899 11.7102C10.3829 11.8039 10.4935 11.8783 10.6154 11.9291C10.7372 11.9798 10.8679 12.006 10.9999 12.006C11.132 12.006 11.2627 11.9798 11.3845 11.9291C11.5064 11.8783 11.617 11.8039 11.7099 11.7102C11.8037 11.6172 11.8781 11.5066 11.9288 11.3848C11.9796 11.2629 12.0057 11.1322 12.0057 11.0002C12.0057 10.8682 11.9796 10.7375 11.9288 10.6156C11.8781 10.4937 11.8037 10.3831 11.7099 10.2902L7.40994 6.00019Z"
              fill="white"/>
    </symbol>

    <symbol id="Logo" viewBox="0 0 100 100">
        <path d="M13,27c-1.105,0 -2,0.895 -2,2c0,1.105 0.895,2 2,2c1.105,0 2,-0.895 2,-2c0,-1.105 -0.895,-2 -2,-2z"
              fill="#cc1439"/>
        <path d="M77,12c-0.552,0 -1,0.448 -1,1c0,0.552 0.448,1 1,1c0.552,0 1,-0.448 1,-1c0,-0.552 -0.448,-1 -1,-1z"
              fill="#808080"/>
        <path d="M50,13c-20.435,0 -37,16.565 -37,37c0,20.435 16.565,37 37,37c20.435,0 37,-16.565 37,-37c0,-20.435 -16.565,-37 -37,-37z"
              fill="#382766"/>
        <path d="M83,11c-2.209,0 -4,1.791 -4,4c0,2.209 1.791,4 4,4c2.209,0 4,-1.791 4,-4c0,-2.209 -1.791,-4 -4,-4z"
              fill="#808080"/>
        <path d="M87,22c-1.105,0 -2,0.895 -2,2c0,1.105 0.895,2 2,2c1.105,0 2,-0.895 2,-2c0,-1.105 -0.895,-2 -2,-2z"
              fill="#cc1439"/>
        <path d="M81,74c-1.105,0 -2,0.895 -2,2c0,1.105 0.895,2 2,2c1.105,0 2,-0.895 2,-2c0,-1.105 -0.895,-2 -2,-2zM15,59c-2.209,0 -4,1.791 -4,4c0,2.209 1.791,4 4,4c2.209,0 4,-1.791 4,-4c0,-2.209 -1.791,-4 -4,-4z"
              fill="#fff"/>
        <path d="M25,85c-1.105,0 -2,0.895 -2,2c0,1.105 0.895,2 2,2c1.105,0 2,-0.895 2,-2c0,-1.105 -0.895,-2 -2,-2z"
              fill="#cc1439"/>
        <path d="M18.5,51c-1.381,0 -2.5,1.119 -2.5,2.5c0,1.381 1.119,2.5 2.5,2.5c1.381,0 2.5,-1.119 2.5,-2.5c0,-1.381 -1.119,-2.5 -2.5,-2.5z"
              fill="#0f9954"/>
        <path d="M21,66c-0.552,0 -1,0.448 -1,1c0,0.552 0.448,1 1,1c0.552,0 1,-0.448 1,-1c0,-0.552 -0.448,-1 -1,-1z"
              fill="#808080"/>
        <path d="M80,33c-0.552,0 -1,0.448 -1,1c0,0.552 0.448,1 1,1c0.552,0 1,-0.448 1,-1c0,-0.552 -0.448,-1 -1,-1z"
              fill="#0f9954"/>
        <path d="M35,72.3c-4.025,0 -7.3,-3.274 -7.3,-7.3v-30c0,-4.025 3.274,-7.3 7.3,-7.3h30c4.025,0 7.3,3.274 7.3,7.3v30c0,4.025 -3.274,7.3 -7.3,7.3z"
              fill="#8c61ff"/>
        <path d="M65,28.4c3.639,0 6.6,2.961 6.6,6.6v30c0,3.639 -2.961,6.6 -6.6,6.6h-30c-3.639,0 -6.6,-2.961 -6.6,-6.6v-30c0,-3.639 2.961,-6.6 6.6,-6.6h30M65,27h-30c-4.4,0 -8,3.6 -8,8v30c0,4.4 3.6,8 8,8h30c4.4,0 8,-3.6 8,-8v-30c0,-4.4 -3.6,-8 -8,-8z"
              fill="#000000"/>
        <path d="M64,69h-28c-2.757,0 -5,-2.243 -5,-5v-28c0,-2.757 2.243,-5 5,-5h25.375c0.276,0 0.5,0.224 0.5,0.5c0,0.276 -0.224,0.5 -0.5,0.5h-25.375c-2.206,0 -4,1.794 -4,4v28c0,2.206 1.794,4 4,4h28c2.206,0 4,-1.794 4,-4v-14.375c0,-0.276 0.224,-0.5 0.5,-0.5c0.276,0 0.5,0.224 0.5,0.5v14.375c0,2.757 -2.243,5 -5,5z"
              fill="#000000"/>
        <path d="M62.5,50c0,-6.904 -5.596,-12.5 -12.5,-12.5c-6.904,0 -12.5,5.596 -12.5,12.5c0,6.904 5.596,12.5 12.5,12.5c1.961,0 3.81,-0.464 5.461,-1.269l1.039,1.269h6l-3.311,-4.047c2.049,-2.226 3.311,-5.189 3.311,-8.453zM50,57.5c-4.142,0 -7.5,-3.358 -7.5,-7.5c0,-4.142 3.358,-7.5 7.5,-7.5c4.142,0 7.5,3.358 7.5,7.5c0,1.701 -0.573,3.264 -1.527,4.523l-2.473,-3.023h-6l4.65,5.683c-0.681,0.204 -1.402,0.317 -2.15,0.317z"
              fill="#ffffff"/>
        <path d="M62.5,63h-6c-0.15,0 -0.292,-0.067 -0.387,-0.184l-0.792,-0.968c-1.692,0.765 -3.48,1.152 -5.321,1.152c-7.168,0 -13,-5.832 -13,-13c0,-7.168 5.832,-13 13,-13c7.168,0 13,5.832 13,13c0,3.113 -1.117,6.103 -3.154,8.467l3.041,3.716c0.123,0.149 0.148,0.356 0.065,0.53c-0.083,0.176 -0.259,0.287 -0.452,0.287zM56.737,62h4.708l-2.643,-3.23c-0.157,-0.192 -0.149,-0.472 0.02,-0.655c2.049,-2.227 3.178,-5.109 3.178,-8.115c0,-6.617 -5.383,-12 -12,-12c-6.617,0 -12,5.383 -12,12c0,6.617 5.383,12 12,12c1.819,0 3.583,-0.41 5.242,-1.219c0.208,-0.102 0.459,-0.047 0.606,0.133zM50,58c-4.411,0 -8,-3.589 -8,-8c0,-4.411 3.589,-8 8,-8c4.411,0 8,3.589 8,8c0,1.751 -0.563,3.419 -1.628,4.825c-0.093,0.122 -0.236,0.195 -0.389,0.198c-0.151,0.006 -0.299,-0.065 -0.396,-0.184l-2.324,-2.839h-4.708l3.982,4.867c0.105,0.129 0.14,0.303 0.091,0.463c-0.049,0.16 -0.175,0.285 -0.335,0.333c-0.749,0.224 -1.52,0.337 -2.293,0.337zM50,43c-3.86,0 -7,3.14 -7,7c0,3.86 3.14,7 7,7c0.421,0 0.843,-0.039 1.259,-0.115l-4.146,-5.068c-0.122,-0.149 -0.147,-0.356 -0.064,-0.531c0.082,-0.175 0.258,-0.286 0.451,-0.286h6c0.15,0 0.292,0.067 0.387,0.184l2.053,2.508c0.695,-1.11 1.06,-2.375 1.06,-3.692c0,-3.86 -3.14,-7 -7,-7z"
              fill="#000000"/>
        <path d="M68.5,47.375c-0.276,0 -0.5,-0.224 -0.5,-0.5v-3.875c0,-0.276 0.224,-0.5 0.5,-0.5c0.276,0 0.5,0.224 0.5,0.5v3.875c0,0.276 -0.224,0.5 -0.5,0.5z"
              fill="#000000"/>
        <path d="M68.5,40.5c-0.276,0 -0.5,-0.224 -0.5,-0.5v-2c0,-0.276 0.224,-0.5 0.5,-0.5c0.276,0 0.5,0.224 0.5,0.5v2c0,0.276 -0.224,0.5 -0.5,0.5z"
              fill="#000000"/>
    </symbol >
</svg>
