<svg width="14" height="14" viewBox="0 0 14 14" fill="none" xmlns="http://www.w3.org/2000/svg">
<path d="M10.7067 13.5C10.6 13.5004 10.4949 13.4753 10.4 13.4266L6.99999 11.6466L3.59999 13.4266C3.48959 13.4847 3.36511 13.5106 3.24071 13.5014C3.11631 13.4923 2.99698 13.4484 2.89628 13.3748C2.79558 13.3012 2.71755 13.2008 2.67107 13.085C2.62459 12.9693 2.61151 12.8428 2.63333 12.72L3.29999 8.96664L0.553328 6.29997C0.467633 6.21446 0.406842 6.10722 0.377479 5.98977C0.348117 5.87232 0.351291 5.74909 0.386661 5.63331C0.425301 5.51482 0.496379 5.40954 0.591828 5.32941C0.687277 5.24928 0.803276 5.19751 0.926661 5.17997L4.72666 4.62664L6.39999 1.20664C6.45458 1.09393 6.53982 0.998868 6.64594 0.932356C6.75205 0.865843 6.87476 0.830566 6.99999 0.830566C7.12523 0.830566 7.24794 0.865843 7.35405 0.932356C7.46017 0.998868 7.5454 1.09393 7.59999 1.20664L9.29333 4.61997L13.0933 5.17331C13.2167 5.19084 13.3327 5.24262 13.4282 5.32275C13.5236 5.40288 13.5947 5.50816 13.6333 5.62664C13.6687 5.74242 13.6719 5.86565 13.6425 5.9831C13.6131 6.10055 13.5524 6.20779 13.4667 6.29331L10.72 8.95997L11.3867 12.7133C11.4105 12.8383 11.398 12.9675 11.3507 13.0856C11.3035 13.2037 11.2234 13.3059 11.12 13.38C10.9993 13.4646 10.8539 13.5068 10.7067 13.5Z" fill="#E6AC39"/>
</svg>
