<svg width="8" height="4" viewBox="0 0 8 4" fill="none" xmlns="http://www.w3.org/2000/svg">
<path d="M7.77078 3.25718C7.77101 3.374 7.73032 3.48722 7.65578 3.57718C7.61381 3.62781 7.56226 3.66966 7.50408 3.70033C7.44591 3.73101 7.38226 3.74991 7.31677 3.75594C7.25128 3.76198 7.18525 3.75504 7.12244 3.73552C7.05964 3.716 7.00131 3.68428 6.95078 3.64218L4.27078 1.40218L1.58578 3.56218C1.53464 3.60371 1.47579 3.63473 1.41262 3.65344C1.34945 3.67216 1.28321 3.6782 1.21769 3.67123C1.15218 3.66426 1.08869 3.64442 1.03087 3.61283C0.97305 3.58124 0.922045 3.53854 0.880783 3.48718C0.835265 3.43544 0.800931 3.37486 0.779937 3.30923C0.758942 3.2436 0.75174 3.17434 0.758783 3.10579C0.765825 3.03724 0.78696 2.97089 0.820861 2.9109C0.854762 2.85091 0.900697 2.79857 0.955783 2.75718L3.95578 0.342177C4.04525 0.268636 4.15747 0.228433 4.27328 0.228433C4.3891 0.228433 4.50132 0.268636 4.59078 0.342177L7.59078 2.84218C7.65129 2.89234 7.69912 2.95605 7.7304 3.02816C7.76167 3.10026 7.77551 3.17872 7.77078 3.25718Z" fill="white"/>
</svg>
