<svg width="16" height="17" viewBox="0 0 16 17" fill="none" xmlns="http://www.w3.org/2000/svg">
<g clip-path="url(#clip0_56116_148)">
<path d="M12.6667 13.8333H3.33332C3.15651 13.8333 2.98694 13.9035 2.86192 14.0285C2.73689 14.1535 2.66666 14.3231 2.66666 14.4999C2.66666 14.6767 2.73689 14.8463 2.86192 14.9713C2.98694 15.0963 3.15651 15.1666 3.33332 15.1666H12.6667C12.8435 15.1666 13.013 15.0963 13.1381 14.9713C13.2631 14.8463 13.3333 14.6767 13.3333 14.4999C13.3333 14.3231 13.2631 14.1535 13.1381 14.0285C13.013 13.9035 12.8435 13.8333 12.6667 13.8333Z" fill="white"/>
<path d="M3.33335 12.5H3.39335L6.17335 12.2467C6.47788 12.2163 6.7627 12.0821 6.98001 11.8667L12.98 5.86665C13.2129 5.62063 13.3387 5.29233 13.33 4.95368C13.3213 4.61503 13.1786 4.29366 12.9333 4.05999L11.1067 2.23332C10.8683 2.00938 10.5559 1.88089 10.2289 1.87229C9.90193 1.86368 9.5832 1.97557 9.33335 2.18665L3.33335 8.18665C3.11786 8.40396 2.98368 8.68879 2.95335 8.99332L2.66668 11.7733C2.6577 11.871 2.67037 11.9694 2.70379 12.0616C2.73721 12.1538 2.79055 12.2374 2.86001 12.3067C2.92231 12.3684 2.99619 12.4173 3.07741 12.4505C3.15864 12.4837 3.24561 12.5005 3.33335 12.5ZM10.18 3.16665L12 4.98665L10.6667 6.28665L8.88001 4.49999L10.18 3.16665ZM4.24668 9.10665L8.00001 5.37999L9.80001 7.17999L6.06668 10.9133L4.06668 11.1L4.24668 9.10665Z" fill="white"/>
</g>
<defs>
<clipPath id="clip0_56116_148">
<rect width="16" height="16" fill="white" transform="translate(0 0.5)"/>
</clipPath>
</defs>
</svg>
