<svg width="16" height="17" viewBox="0 0 16 17" fill="none" xmlns="http://www.w3.org/2000/svg">
<g clip-path="url(#clip0_55777_142)">
<path d="M8.00001 1.83325C6.68147 1.83325 5.39254 2.22425 4.29621 2.95679C3.19988 3.68933 2.3454 4.73052 1.84082 5.9487C1.33623 7.16687 1.20421 8.50731 1.46144 9.80052C1.71868 11.0937 2.35362 12.2816 3.28597 13.214C4.21832 14.1463 5.4062 14.7813 6.69941 15.0385C7.99262 15.2957 9.33306 15.1637 10.5512 14.6591C11.7694 14.1545 12.8106 13.3 13.5431 12.2037C14.2757 11.1074 14.6667 9.81846 14.6667 8.49992C14.6667 7.62444 14.4942 6.75753 14.1592 5.9487C13.8242 5.13986 13.3331 4.40493 12.7141 3.78587C12.095 3.16682 11.3601 2.67575 10.5512 2.34072C9.7424 2.00569 8.87549 1.83325 8.00001 1.83325ZM8.00001 13.8333C6.94518 13.8333 5.91403 13.5205 5.03697 12.9344C4.15991 12.3484 3.47632 11.5154 3.07266 10.5409C2.66899 9.56636 2.56337 8.494 2.76916 7.45944C2.97495 6.42487 3.4829 5.47456 4.22878 4.72868C4.97466 3.9828 5.92497 3.47485 6.95953 3.26906C7.9941 3.06328 9.06645 3.16889 10.041 3.57256C11.0155 3.97623 11.8485 4.65982 12.4345 5.53688C13.0206 6.41394 13.3333 7.44509 13.3333 8.49992C13.3333 9.91441 12.7714 11.271 11.7712 12.2712C10.7711 13.2713 9.4145 13.8333 8.00001 13.8333Z" fill="white"/>
<path d="M8.22666 5.46667C8.06331 5.31613 7.85932 5.21692 7.64004 5.18136C7.42077 5.1458 7.19588 5.17547 6.99333 5.26667C6.7967 5.34621 6.62825 5.48257 6.5095 5.65832C6.39075 5.83407 6.32709 6.04123 6.32666 6.25334V10.7467C6.32709 10.9588 6.39075 11.1659 6.5095 11.3417C6.62825 11.5174 6.7967 11.6538 6.99333 11.7333C7.13784 11.7989 7.29464 11.833 7.45333 11.8333C7.73927 11.8321 8.01467 11.7252 8.22666 11.5333L10.6667 9.28667C10.7758 9.18674 10.8629 9.06519 10.9226 8.92976C10.9822 8.79433 11.013 8.64798 11.013 8.5C11.013 8.35203 10.9822 8.20568 10.9226 8.07025C10.8629 7.93482 10.7758 7.81327 10.6667 7.71334L8.22666 5.46667ZM7.66666 10.2333V6.76667L9.53999 8.5L7.66666 10.2333Z" fill="white"/>
</g>
<defs>
<clipPath id="clip0_55777_142">
<rect width="16" height="16" fill="white" transform="translate(0 0.5)"/>
</clipPath>
</defs>
</svg>
