<svg width="16" height="16" viewBox="0 0 16 16" fill="none" xmlns="http://www.w3.org/2000/svg">
<g id="LayerDown">
<g id="arrow-ios-forward">
<path id="Vector" d="M3.67609 6.30553C3.67579 6.14977 3.73004 5.99881 3.82942 5.87887C3.88539 5.81136 3.95412 5.75556 4.03169 5.71466C4.10925 5.67376 4.19412 5.64856 4.28144 5.64051C4.36876 5.63246 4.45681 5.64171 4.54054 5.66774C4.62428 5.69377 4.70206 5.73607 4.76942 5.7922L8.34276 8.77887L11.9228 5.89887C11.9909 5.84349 12.0694 5.80214 12.1536 5.77718C12.2379 5.75223 12.3262 5.74417 12.4135 5.75346C12.5009 5.76275 12.5856 5.78922 12.6626 5.83133C12.7397 5.87345 12.8077 5.93038 12.8628 5.99887C12.9234 6.06785 12.9692 6.14862 12.9972 6.23613C13.0252 6.32364 13.0348 6.41599 13.0254 6.50738C13.016 6.59878 12.9879 6.68725 12.9427 6.76724C12.8975 6.84722 12.8362 6.91701 12.7628 6.9722L8.76276 10.1922C8.64347 10.2903 8.49384 10.3439 8.33942 10.3439C8.18501 10.3439 8.03538 10.2903 7.91609 10.1922L3.91609 6.85887C3.83541 6.79199 3.77164 6.70703 3.72994 6.61089C3.68824 6.51475 3.66979 6.41014 3.67609 6.30553Z" fill="white"/>
</g>
</g>
</svg>
